<?xml version="1.0" encoding="UTF-8"?>
<!DOCTYPE svg PUBLIC '-//W3C//DTD SVG 1.0//EN'
    'http://www.w3.org/TR/2001/REC-SVG-20010904/DTD/svg10.dtd' >

<svg style="stroke-dasharray:none; shape-rendering:auto; font-family:'Dialog'; text-rendering:auto; fill-opacity:1; color-interpolation:auto; color-rendering:auto; font-size:12px; fill:black; stroke:black; image-rendering:auto; stroke-miterlimit:10; stroke-linecap:square; stroke-linejoin:miter; font-style:normal; stroke-width:1; stroke-dashoffset:0; font-weight:normal; stroke-opacity:1;"
     xmlns="http://www.w3.org/2000/svg" contentScriptType="text/ecmascript"
     preserveAspectRatio="xMidYMid meet"
     xmlns:xlink="http://www.w3.org/1999/xlink" zoomAndPan="magnify"
     version="1.0" contentStyleType="text/css">
    <!--Generated by the Batik Graphics2D SVG Generator-->
    <defs id="genericDefs"/>
    <g>
        <defs id="defs1">
            <clipPath clipPathUnits="userSpaceOnUse" id="clipPath1">
                <path d="M248 572 L552 572 L552 594 L248 594 L248 572 Z"/>
            </clipPath>
            <clipPath clipPathUnits="userSpaceOnUse" id="clipPath2">
                <path d="M251 575 L251 591 L338 591 L338 575 Z"/>
            </clipPath>
            <clipPath clipPathUnits="userSpaceOnUse" id="clipPath3">
                <path d="M-12 0 L-12 16 L75 16 L75 0 Z"/>
            </clipPath>
            <clipPath clipPathUnits="userSpaceOnUse" id="clipPath4">
                <path d="M0 0 L0 16 L87 16 L87 0 Z"/>
            </clipPath>
            <clipPath clipPathUnits="userSpaceOnUse" id="clipPath5">
                <path d="M37 0 L37 15 L86 15 L86 0 Z"/>
            </clipPath>
            <clipPath clipPathUnits="userSpaceOnUse" id="clipPath6">
                <path d="M337 575 L337 591 L424 591 L424 575 Z"/>
            </clipPath>
            <clipPath clipPathUnits="userSpaceOnUse" id="clipPath7">
                <path d="M-2 0 L-2 16 L85 16 L85 0 Z"/>
            </clipPath>
            <clipPath clipPathUnits="userSpaceOnUse" id="clipPath8">
                <path d="M423 575 L423 591 L550 591 L550 575 Z"/>
            </clipPath>
            <clipPath clipPathUnits="userSpaceOnUse" id="clipPath9">
                <path d="M-2 0 L-2 16 L125 16 L125 0 Z"/>
            </clipPath>
            <clipPath clipPathUnits="userSpaceOnUse" id="clipPath10">
                <path d="M0 0 L0 16 L127 16 L127 0 Z"/>
            </clipPath>
            <clipPath clipPathUnits="userSpaceOnUse" id="clipPath11">
                <path d="M37 0 L37 15 L126 15 L126 0 Z"/>
            </clipPath>
            <clipPath clipPathUnits="userSpaceOnUse" id="clipPath12">
                <path d="M0 0 L790 0 L790 549 L0 549 L0 0 Z"/>
            </clipPath>
            <clipPath clipPathUnits="userSpaceOnUse" id="clipPath13">
                <path d="M-705.7988 -53.6167 L84.2012 -53.6167 L84.2012 495.3833 L-705.7988 495.3833 L-705.7988 -53.6167 Z"/>
            </clipPath>
            <clipPath clipPathUnits="userSpaceOnUse" id="clipPath14">
                <path d="M-558.3991 -159.2406 L231.6009 -159.2406 L231.6009 389.7594 L-558.3991 389.7594 L-558.3991 -159.2406 Z"/>
            </clipPath>
            <clipPath clipPathUnits="userSpaceOnUse" id="clipPath15">
                <path d="M-410.9994 -245.6601 L379.0006 -245.6601 L379.0006 303.3399 L-410.9994 303.3399 L-410.9994 -245.6601 Z"/>
            </clipPath>
            <clipPath clipPathUnits="userSpaceOnUse" id="clipPath16">
                <path d="M-263.5996 -351.284 L526.4004 -351.284 L526.4004 197.716 L-263.5996 197.716 L-263.5996 -351.284 Z"/>
            </clipPath>
            <clipPath clipPathUnits="userSpaceOnUse" id="clipPath17">
                <path d="M-116.1999 -437.7035 L673.8001 -437.7035 L673.8001 111.2965 L-116.1999 111.2965 L-116.1999 -437.7035 Z"/>
            </clipPath>
            <clipPath clipPathUnits="userSpaceOnUse" id="clipPath18">
                <path d="M47 0 L47 514 L790 514 L790 0 Z"/>
            </clipPath>
            <clipPath clipPathUnits="userSpaceOnUse" id="clipPath19">
                <path d="M410 536 L410 546 L427 546 L427 536 Z"/>
            </clipPath>
            <clipPath clipPathUnits="userSpaceOnUse" id="clipPath20">
                <path d="M5 20 L795 20 L795 569 L5 569 L5 20 Z"/>
            </clipPath>
            <clipPath clipPathUnits="userSpaceOnUse" id="clipPath21">
                <path d="M1 252 L1 262 L18 262 L18 252 Z"/>
            </clipPath>
            <clipPath clipPathUnits="userSpaceOnUse" id="clipPath22">
                <path d="M0 0 L791 0 L791 16 L0 16 L0 0 Z"/>
            </clipPath>
            <clipPath clipPathUnits="userSpaceOnUse" id="clipPath23">
                <path d="M0 0 L0 15 L791 15 L791 0 Z"/>
            </clipPath>
        </defs>
        <g transform="translate(263,575)"
           style="font-size:13px; fill:blue; text-rendering:optimizeLegibility; image-rendering:optimizeQuality; color-rendering:optimizeQuality; font-family:'Times New Roman'; stroke:blue; color-interpolation:linearRGB;">
            <path d="M0 7.5 L14 7.5 M7.5 0 L7.5 14"
                  style="fill:none; clip-path:url(#clipPath3);"/>
        </g>
        <g transform="translate(251,575)"
           style="stroke-linecap:butt; font-size:13px; text-rendering:optimizeLegibility; image-rendering:optimizeQuality; color-rendering:optimizeQuality; font-family:'Times New Roman'; stroke-linejoin:round; color-interpolation:linearRGB; stroke-width:1.5;">
            <path d="M46.8242 3.6719 Q46.418 6.0586 45.9102 7.582 Q46.9766 9.207 47.1289 9.791 Q47.2812 10.375 47.2812 10.5273 Q47.2812 10.8828 47.1289 11.1113 Q46.9766 11.3398 46.9258 11.3398 Q46.7734 11.3398 46.4688 10.375 Q46.1133 9.207 45.5547 8.1914 Q44.5898 10.5273 42.6094 12.4062 L42.5078 12.2031 Q44.2852 10.0195 45.1484 7.6328 Q44.6406 6.7188 43.2695 4.9414 L43.4219 4.8398 Q44.6914 6.1094 45.4023 6.9727 Q45.7578 5.957 46.1133 3.4688 L44.4375 3.4688 Q43.7773 3.4688 43.2188 3.6211 L42.7617 3.1641 L46.0625 3.1641 L46.5703 2.6562 L47.2305 3.3164 ZM53.1211 2.8594 Q53.1211 6.7188 53.1719 8.1406 L52.4609 8.4961 L52.4609 2.6562 L48.5 2.6562 L48.5 8.1914 L47.7891 8.6484 Q47.8398 7.1758 47.8398 5.3984 Q47.8398 3.6211 47.7891 1.9453 L48.5508 2.3516 L52.3594 2.3516 L52.8672 1.8438 L53.5781 2.5547 ZM45.0977 13.0664 Q46.5703 12.5586 47.6367 11.7715 Q48.7031 10.9844 49.2109 9.791 Q49.7188 8.5977 49.8203 6.668 Q49.9219 4.7383 49.9219 3.6719 L51.0898 4.332 L50.6328 4.6875 Q50.582 7.8359 50.0996 9.334 Q49.6172 10.832 48.5508 11.7207 Q47.4844 12.6094 45.1484 13.2695 ZM51.4961 12.8125 Q50.6328 12.8125 50.6328 11.7969 L50.6328 9.2578 Q50.6328 8.4961 50.582 7.7344 L51.6484 8.293 L51.293 8.6484 L51.293 11.6953 Q51.293 12.2031 51.8516 12.2031 L52.7656 12.2031 Q53.2227 12.2031 53.3242 11.6445 Q53.4258 11.0859 53.4766 9.7148 L53.7305 9.7148 Q53.7305 10.9844 53.8574 11.4668 Q53.9844 11.9492 54.3398 12.0508 Q53.9844 12.8125 53.2227 12.8125 ZM59.0117 9.9688 Q59.0625 9.0039 59.0625 6.0586 Q59.0625 3.1133 59.0117 1.8438 L59.7734 2.3008 L62.2617 2.3008 L62.668 1.8945 L63.3281 2.5547 L62.9219 2.8594 L62.9219 7.2266 Q62.9219 8.2422 62.9727 9.2578 L62.3125 9.5625 L62.3125 2.6055 L59.7227 2.6055 L59.7227 9.6641 ZM60.6367 3.9258 L61.7031 4.4844 L61.3477 4.8398 Q61.3984 8.293 60.8398 10.0957 Q60.2812 11.8984 57.793 13.2188 L57.6914 13.0156 Q59.4688 11.7969 60.0273 10.5273 Q60.5859 9.2578 60.6367 7.5566 Q60.6875 5.8555 60.6367 3.9258 ZM61.2969 10.0703 Q62.7695 11.0859 62.998 11.4668 Q63.2266 11.8477 63.2266 12.0508 Q63.2266 12.3047 63.0742 12.5332 Q62.9219 12.7617 62.8203 12.7617 Q62.6172 12.7617 62.4141 12.1523 Q62.1094 11.2383 61.1953 10.2227 ZM64.0898 10.3242 Q64.1406 9.5625 64.1406 8.5469 L64.1406 5.0938 Q64.1406 3.9766 64.0898 3.2656 L65.207 3.8242 L64.8008 4.2305 L64.8008 8.5469 Q64.8008 9.3086 64.8516 10.0703 ZM65.918 11.6953 L65.918 3.7734 Q65.918 2.3516 65.8672 1.5898 L66.9336 2.0977 L66.5781 2.4531 L66.5781 11.8477 Q66.5781 12.4062 66.375 12.7109 Q66.1719 13.0156 65.5625 13.2188 Q65.207 12.457 64.0391 12.1016 L64.0391 11.8984 Q65.4102 12.1016 65.6641 12.0762 Q65.918 12.0508 65.918 11.6953 ZM58.7578 4.8906 Q57.793 8.9023 57.6406 9.5117 Q57.4375 10.1719 57.4629 11.0859 Q57.4883 12 57.5391 12.3555 Q57.5391 12.5586 57.2852 12.5586 Q57.082 12.5586 56.7773 12.457 Q56.4727 12.3555 56.4727 12 Q56.4727 11.7461 56.625 11.2383 Q56.7773 10.7305 56.7773 10.4258 Q56.7773 10.0703 56.5488 9.8672 Q56.3203 9.6641 55.5586 9.4609 L55.5586 9.2578 Q56.4727 9.3594 56.7012 9.334 Q56.9297 9.3086 57.209 8.877 Q57.4883 8.4453 58.5547 4.8398 ZM55.7617 4.332 Q57.1836 5.1953 57.2598 5.7031 Q57.3359 6.2109 57.1328 6.3633 Q56.9297 6.5156 56.8281 6.5156 Q56.625 6.5156 56.4727 5.957 Q56.2188 5.1953 55.6602 4.4844 ZM56.625 1.6406 Q57.9961 2.4023 58.1484 2.834 Q58.3008 3.2656 58.0977 3.4941 Q57.8945 3.7227 57.7422 3.7227 Q57.5898 3.7227 57.4375 3.2656 Q57.1836 2.5547 56.5234 1.793 ZM71.0977 10.6797 Q71.0977 12.457 71.1484 13.0664 L70.3867 13.3203 Q70.4375 11.4922 70.4375 10.8828 L70.4375 5.8555 Q69.5234 7.3281 68.6602 8.2422 L68.5078 8.1406 Q69.4727 6.668 70.2344 4.8398 Q70.9961 3.0117 71.4023 1.4375 L72.4688 2.0977 L71.9609 2.4023 Q71.1484 4.2812 70.8945 4.9414 L71.5039 5.2969 L71.0977 5.6016 ZM73.8398 5.4492 L73.8398 6.9727 L77.75 6.9727 L77.75 5.4492 ZM73.8398 7.2773 L73.8398 8.8008 L77.75 8.8008 L77.75 7.2773 ZM73.8398 9.1055 L73.8398 10.6289 L77.75 10.6289 L77.75 9.1055 ZM73.8398 10.9336 L73.8398 12.457 L77.75 12.457 L77.75 10.9336 ZM75.2109 3.3672 Q75.2617 2.1992 75.2109 1.3867 L76.3789 1.9453 L75.9727 2.25 L75.9219 3.3672 L78.207 3.3672 L78.8672 2.707 L79.832 3.6719 L75.9219 3.6719 L75.8711 5.1445 L77.6484 5.1445 L78.1055 4.6367 L78.8672 5.2969 L78.4102 5.6016 L78.4102 12.457 L78.8672 12.457 L79.5273 11.7969 L80.4922 12.7617 L72.9766 12.7617 Q72.3164 12.7617 71.7578 12.9141 L71.3008 12.457 L73.1797 12.457 L73.1797 6.8203 Q73.1797 6.2109 73.1289 4.7383 L73.8398 5.1445 L75.1602 5.1445 L75.2109 3.6719 L73.6875 3.6719 Q73.0273 3.6719 72.4688 3.8242 L72.0117 3.3672 Z"
                  style="stroke:none; clip-path:url(#clipPath5);"/>
        </g>
        <g style="stroke-linecap:butt; font-size:13px; fill:red; text-rendering:optimizeLegibility; image-rendering:optimizeQuality; color-rendering:optimizeQuality; font-family:'Times New Roman'; stroke-linejoin:round; stroke:red; color-interpolation:linearRGB; stroke-width:1.5;"
           transform="translate(339,575)">
            <path d="M0 7 L34 7" style="fill:none; clip-path:url(#clipPath7);"/>
        </g>
        <g transform="translate(337,575)"
           style="stroke-linecap:butt; font-size:13px; text-rendering:optimizeLegibility; image-rendering:optimizeQuality; color-rendering:optimizeQuality; font-family:'Times New Roman'; stroke-linejoin:round; color-interpolation:linearRGB; stroke-width:1.5;">
            <path d="M46.9766 5.5 L46.9766 8.3438 L49.9727 8.3438 L49.9727 5.5 ZM46.2656 9.7656 Q46.3164 8.6484 46.3164 7.3027 Q46.3164 5.957 46.2656 4.7383 L47.0273 5.1953 L49.9219 5.1953 L50.2773 4.7383 L51.0898 5.2969 L50.6836 5.6523 Q50.6836 8.4453 50.7344 9.2578 L49.9727 9.5625 L49.9727 8.6484 L46.9766 8.6484 L46.9766 9.4609 ZM53.1719 2.9102 L53.1719 9.8164 Q53.1719 10.9844 53.2227 12.5078 L52.5117 12.8125 L52.5117 11.7969 L44.5391 11.7969 L44.5391 12.7617 L43.7773 13.0664 Q43.8281 11.6953 43.8281 7.5312 Q43.8281 3.3672 43.7773 1.9961 L44.5391 2.4531 L52.4609 2.4531 L52.7656 1.9453 L53.5781 2.5039 ZM44.5391 2.7578 L44.5391 11.4922 L52.5117 11.4922 L52.5117 2.7578 ZM57.5898 3.9766 Q57.5898 8.5977 57.6406 9.8164 L56.8281 10.2227 Q56.8789 8.3945 56.8789 6.3125 Q56.8789 4.2305 56.8281 2.9609 L57.9453 3.5703 ZM56.0156 13.168 Q57.2852 12.2539 58.1484 11.0605 Q59.0117 9.8672 59.1641 7.9375 Q59.3164 6.0078 59.3164 4.332 Q59.3164 2.6562 59.2656 1.4375 L60.5352 1.9961 L60.0781 2.4023 Q60.0781 6.4141 59.8242 8.3184 Q59.5703 10.2227 58.5039 11.3906 Q57.4375 12.5586 56.1172 13.3203 ZM66.4766 3.875 L66.4766 9.8164 Q66.4766 11.1875 66.5273 12.5078 L65.7148 12.8125 L65.7148 11.4414 L61.6016 11.4414 Q60.9414 11.4414 60.3828 11.5938 L59.9258 11.1367 L65.7148 11.1367 L65.7148 7.3281 L62.4141 7.3281 Q61.7539 7.3281 61.1953 7.4805 L60.7383 7.0234 L65.7148 7.0234 L65.7148 3.6719 L62.1602 3.6719 Q61.5 3.6719 60.9414 3.8242 L60.4844 3.3672 L65.6133 3.3672 L66.0703 2.8594 L66.8828 3.5703 ZM75.9219 5.0938 Q75.9219 5.8047 76.0234 6.9727 L78.4102 6.7188 L79.0703 5.957 L80.0859 6.8203 L76.0742 7.2266 Q76.2266 8.8008 76.582 9.7148 Q77.6992 8.6992 78.3594 7.582 L79.2734 8.4961 L78.8164 8.5469 Q77.8516 9.4609 76.8867 10.375 Q77.8008 11.6445 79.0195 12.1523 L79.7305 9.7148 L79.9336 9.7656 Q79.832 10.9336 79.8066 11.6953 Q79.7812 12.457 80.0352 12.9141 Q80.0859 13.0156 80.0859 13.0664 Q80.0859 13.2695 79.5527 13.1934 Q79.0195 13.1172 78.1309 12.584 Q77.2422 12.0508 76.3281 10.8828 Q75.4141 11.4922 74.4746 11.8984 Q73.5352 12.3047 72.1133 12.7109 L72.0625 12.5078 Q74.2461 11.6953 75.9727 10.2734 Q75.5156 8.9023 75.3633 7.3281 L73.2812 7.582 L72.875 7.7852 L72.3164 7.3789 L75.3125 7.0742 Q75.2617 6.3633 75.2109 5.1445 L73.7383 5.2461 L73.4336 5.4492 L72.9766 5.043 L75.2109 4.8906 Q75.1602 3.1133 75.1094 1.3359 L76.2773 1.8945 L75.8711 2.25 Q75.8711 3.3164 75.9219 4.8398 L78.1055 4.6367 L78.7656 3.875 L79.7812 4.7891 ZM76.6836 2.1992 L76.7344 2.0469 Q78.3086 2.4531 78.4609 2.7324 Q78.6133 3.0117 78.6133 3.2148 Q78.6133 3.4688 78.5117 3.7227 Q78.4102 3.9766 78.3086 3.9766 Q78.207 3.9766 78.0039 3.5703 Q77.6484 3.0117 76.6836 2.1992 ZM71.0977 1.5391 L72.1133 2.1992 Q71.707 2.3516 71.25 3.2148 Q70.793 4.1289 69.5742 5.8047 L71.6562 5.6016 Q72.2656 4.5859 72.6211 3.5703 L73.5352 4.2305 Q73.1797 4.4336 72.3164 5.7031 Q71.4531 6.9727 70.082 8.75 Q70.793 8.6484 73.2305 8.1914 L73.2305 8.3945 Q71.8594 8.75 71.0977 9.0293 Q70.3359 9.3086 69.5742 9.8164 L68.9648 8.75 Q69.5234 8.5977 70.2598 7.6582 Q70.9961 6.7188 71.5547 5.8047 Q70.9961 5.9062 70.3867 6.084 Q69.7773 6.2617 69.2695 6.7188 L68.7109 5.7539 Q69.2695 5.6523 70.0059 4.3066 Q70.7422 2.9609 71.0977 1.5391 ZM68.6602 11.2383 Q70.082 11.0352 70.9453 10.8828 Q71.8086 10.7305 73.7383 10.3242 L73.7891 10.5273 Q71.5039 11.1875 70.4629 11.5684 Q69.4219 11.9492 69.168 12.2031 Z"
                  style="stroke:none; clip-path:url(#clipPath5);"/>
        </g>
        <g style="color-rendering:optimizeQuality; color-interpolation:linearRGB; text-rendering:optimizeLegibility; stroke:lime; stroke-linecap:butt; fill:lime; stroke-dasharray:2,5; stroke-width:1.5; font-family:'Times New Roman'; stroke-linejoin:round; font-size:13px; image-rendering:optimizeQuality;"
           transform="translate(425,575)">
            <path d="M0 7 L34 7"
                  style="fill:none; clip-path:url(#clipPath9); opacity:0.949;"/>
        </g>
        <g transform="translate(423,575)"
           style="stroke-linecap:butt; font-size:13px; text-rendering:optimizeLegibility; image-rendering:optimizeQuality; color-rendering:optimizeQuality; font-family:'Times New Roman'; stroke-linejoin:round; color-interpolation:linearRGB; stroke-width:1.5;">
            <path d="M42.6855 12.1777 L42.6855 11.9429 Q43.5107 11.9302 44.2217 11.5588 Q44.9326 11.1875 45.5959 10.2607 Q46.2593 9.334 46.5195 8.2231 Q45.5229 8.8643 44.7168 8.8643 Q43.8091 8.8643 43.1616 8.1628 Q42.5142 7.4614 42.5142 6.2998 Q42.5142 5.1699 43.1616 4.2876 Q43.9424 3.2148 45.1992 3.2148 Q46.2593 3.2148 47.0146 4.0908 Q47.9414 5.1763 47.9414 6.7695 Q47.9414 8.2041 47.2368 9.4451 Q46.5322 10.686 45.2754 11.5049 Q44.2534 12.1777 43.0474 12.1777 ZM46.6211 7.7534 Q46.7354 6.9282 46.7354 6.4331 Q46.7354 5.8174 46.5259 5.1033 Q46.3164 4.3892 45.9324 4.0083 Q45.5483 3.6274 45.0596 3.6274 Q44.4946 3.6274 44.0693 4.1353 Q43.644 4.6431 43.644 5.646 Q43.644 6.9854 44.209 7.7407 Q44.6216 8.2866 45.2246 8.2866 Q45.5166 8.2866 45.9165 8.147 Q46.3164 8.0073 46.6211 7.7534 ZM54.1431 3.3926 L53.6479 4.4717 L51.0581 4.4717 L50.4932 5.627 Q52.1753 5.8745 53.1592 6.8774 Q54.0034 7.7407 54.0034 8.9087 Q54.0034 9.5879 53.7273 10.1655 Q53.4512 10.7432 53.0322 11.1494 Q52.6133 11.5557 52.0991 11.8032 Q51.3691 12.1523 50.6011 12.1523 Q49.8267 12.1523 49.4744 11.8889 Q49.1221 11.6255 49.1221 11.3081 Q49.1221 11.1304 49.2681 10.9939 Q49.4141 10.8574 49.6362 10.8574 Q49.8013 10.8574 49.925 10.9082 Q50.0488 10.959 50.3472 11.1685 Q50.8232 11.4985 51.312 11.4985 Q52.0547 11.4985 52.6165 10.9368 Q53.1782 10.375 53.1782 9.5688 Q53.1782 8.7881 52.6768 8.1121 Q52.1753 7.436 51.293 7.0679 Q50.6011 6.7822 49.4077 6.7378 L51.0581 3.3926 ZM63.8359 3.1958 L57.5645 12.3555 L56.9995 12.3555 L63.271 3.1958 ZM57.3105 3.1958 Q58.1675 3.1958 58.6404 3.9067 Q59.1133 4.6177 59.1133 5.5381 Q59.1133 6.6426 58.5801 7.2456 Q58.0469 7.8486 57.2979 7.8486 Q56.7964 7.8486 56.3774 7.5725 Q55.9585 7.2964 55.7078 6.7505 Q55.457 6.2046 55.457 5.5381 Q55.457 4.8716 55.7109 4.3098 Q55.9648 3.748 56.406 3.4719 Q56.8472 3.1958 57.3105 3.1958 ZM57.2915 3.5513 Q56.9678 3.5513 56.717 3.9321 Q56.4663 4.313 56.4663 5.5317 Q56.4663 6.4141 56.606 6.8774 Q56.7139 7.2266 56.9424 7.417 Q57.0757 7.5312 57.2725 7.5312 Q57.5771 7.5312 57.793 7.2012 Q58.1104 6.7124 58.1104 5.5698 Q58.1104 4.3638 57.7993 3.875 Q57.5962 3.5513 57.2915 3.5513 ZM63.5439 7.728 Q63.9946 7.728 64.4421 8.0137 Q64.8896 8.2993 65.134 8.8452 Q65.3784 9.3911 65.3784 10.0449 Q65.3784 11.1685 64.8389 11.762 Q64.2993 12.3555 63.563 12.3555 Q63.0996 12.3555 62.6648 12.0698 Q62.23 11.7842 61.9792 11.2542 Q61.7285 10.7241 61.7285 10.0449 Q61.7285 9.3784 61.9792 8.8262 Q62.23 8.2739 62.6648 8.001 Q63.0996 7.728 63.5439 7.728 ZM63.5503 8.0645 Q63.2456 8.0645 63.0234 8.4072 Q62.7378 8.8516 62.7378 10.0894 Q62.7378 11.2256 63.0298 11.6763 Q63.2456 12 63.5503 12 Q63.8423 12 64.0708 11.6509 Q64.3755 11.1875 64.3755 10.0576 Q64.3755 8.8643 64.0708 8.3882 Q63.8613 8.0645 63.5503 8.0645 Z"
                  style="stroke:none; clip-path:url(#clipPath11);"/>
            <path d="M71.8438 2.3516 L71.8438 4.0273 L73.8242 4.0273 L73.8242 2.3516 ZM74.5352 2.3516 L74.5352 4.0273 L76.5156 4.0273 L76.5156 2.3516 ZM77.1758 2.3516 L77.1758 4.0273 L79.207 4.0273 L79.207 2.3516 ZM71.082 1.6406 L71.8438 1.9961 L79.1562 1.9961 L79.5117 1.5391 L80.2734 2.0977 L79.9688 2.4023 Q79.9688 3.0625 79.9688 3.5449 Q79.9688 4.0273 80.0195 4.5352 L79.207 4.7891 L79.207 4.3828 L71.8438 4.3828 L71.8438 4.6367 L71.082 4.8906 Q71.1328 3.875 71.1328 3.0117 Q71.1328 2.1484 71.082 1.6406 ZM72.8594 11.2891 L72.8594 12.4062 L78.0391 12.4062 L78.0391 11.2891 ZM70.3711 5.4492 L74.8906 5.4492 Q74.9414 4.8906 74.9414 4.3828 L76.1094 4.7891 L75.7539 4.9922 L75.6016 5.4492 L78.8516 5.4492 L79.5625 4.8906 L80.4766 5.8047 L75.5508 5.8047 Q75.3984 6.3125 75.2461 6.7695 L77.9375 6.7695 L78.293 6.2109 L79.1562 6.8203 L78.75 7.2773 L78.75 12.4062 L79.7656 12.4062 L80.5273 11.7461 L81.543 12.7617 L71.2852 12.7617 Q70.5234 12.7617 69.9141 12.9141 L69.4062 12.4062 L72.0977 12.4062 L72.0977 7.7344 Q72.0977 7.1758 72.0469 6.4141 L72.8594 6.7695 L74.6875 6.7695 L74.8398 5.8047 L72.1992 5.8047 Q71.4883 5.8047 70.8789 5.957 ZM72.8594 7.125 L72.8594 8.1406 L78.0391 8.1406 L78.0391 7.125 ZM72.8594 8.4961 L72.8594 9.5117 L78.0391 9.5117 L78.0391 8.4961 ZM72.8594 9.8672 L72.8594 10.9336 L78.0391 10.9336 L78.0391 9.8672 ZM88.957 1.5898 L89.1094 1.4375 Q90.125 2.0469 90.3789 2.377 Q90.6328 2.707 90.6328 2.8594 Q90.6328 3.1641 90.2266 3.5703 L92.5625 3.5703 L93.1719 2.9609 L94.0859 3.875 L87.7891 3.875 Q87.1289 3.875 86.5703 4.0273 L86.1133 3.5703 L89.8203 3.5703 Q89.8203 2.6055 88.957 1.5898 ZM88.0938 9.3594 L88.0938 11.6953 L92.2578 11.6953 L92.2578 9.3594 ZM87.0273 5.3984 L91.9023 5.3984 L92.5117 4.7891 L93.4258 5.7031 L88.5508 5.7031 Q88.043 5.7031 87.4844 5.8555 ZM86.9258 7.2773 L91.9531 7.2773 L92.5625 6.668 L93.4766 7.582 L88.6016 7.582 Q87.9414 7.582 87.3828 7.7344 ZM87.3828 8.5977 L88.0938 9.0547 L92.1562 9.0547 L92.6133 8.5469 L93.3242 9.1562 L92.918 9.4609 L92.918 11.8984 Q92.918 12.4062 92.9688 12.6602 L92.2578 12.9648 L92.2578 12 L88.0938 12 L88.0938 12.7109 L87.3828 13.0156 Q87.4336 12.2031 87.4336 10.9844 Q87.4336 9.7656 87.3828 8.5977 ZM85.1484 5.6016 L85.1484 13.0664 L84.4375 13.3203 Q84.4883 12.3047 84.4883 11.5938 L84.4883 5.8555 Q83.5234 7.2773 82.6094 8.1406 L82.5078 7.9883 Q83.8281 6.1602 84.6406 4.1543 Q85.4531 2.1484 85.6055 1.3867 L86.6211 1.9961 L86.2148 2.25 Q85.4023 4.0273 84.9453 4.9414 L85.5547 5.2969 ZM99.1133 4.1797 Q100.4844 5.1953 102.1602 6.7695 Q102.8203 5.8555 103.3027 5.0176 Q103.7852 4.1797 104.0391 3.5703 L105.207 4.3828 Q104.75 4.4844 104.0898 5.373 Q103.4297 6.2617 102.7188 7.2266 Q104.5469 8.9531 104.6992 9.4102 Q104.8516 9.8672 104.8516 10.1211 Q104.8516 10.375 104.7246 10.6543 Q104.5977 10.9336 104.5469 10.9336 Q104.3945 10.9336 104.1406 10.4258 Q103.7344 9.7148 103.3027 9.1309 Q102.8711 8.5469 102.2617 7.8359 Q101.1953 9.0039 100.2305 9.8164 Q99.2656 10.6289 98.5039 11.0859 L98.4023 10.9336 Q99.3164 10.1719 100.1289 9.334 Q100.9414 8.4961 101.7539 7.3281 Q100.3828 5.7031 98.9609 4.332 ZM97.4883 2.4023 L105.0547 2.4023 L105.7656 1.6914 L106.7305 2.707 L97.4883 2.707 L97.4883 12.2031 L105.2578 12.2031 L105.9688 11.4922 L106.8828 12.5078 L97.5391 12.5078 L97.2344 12.9648 L96.4727 12.3555 L96.7773 12.0508 L96.7773 3.6719 Q96.7773 3.2148 96.7266 1.9453 ZM112.3672 10.9336 Q112.418 9.3086 112.418 7.709 Q112.418 6.1094 112.3672 4.5352 L113.1289 4.9922 L115.6172 4.9922 L116.125 4.4844 L116.7852 5.1445 L116.3789 5.5 Q116.3789 8.8516 116.4297 10.4258 L115.7188 10.832 L115.7188 10.0195 L113.0781 10.0195 L113.0781 10.5781 ZM113.0781 5.2969 L113.0781 7.2773 L115.7188 7.2773 L115.7188 5.2969 ZM113.0781 7.582 L113.0781 9.7148 L115.7188 9.7148 L115.7188 7.582 ZM110.5898 1.4375 Q111.7578 2.1992 111.9609 2.5039 Q112.1641 2.8086 112.1641 3.0117 Q112.1641 3.3164 111.9609 3.5957 Q111.7578 3.875 111.707 3.875 Q111.5547 3.875 111.4023 3.3164 Q111.1484 2.5547 110.4375 1.5898 ZM110.2852 11.1367 Q110.2852 11.9492 110.3359 12.7617 L109.5234 13.0664 Q109.5742 12.3047 109.5742 8.0391 Q109.5742 3.7734 109.5234 3.0117 L110.7422 3.6211 L110.2852 3.9258 ZM116.582 11.7461 Q118.207 12 118.4102 11.9238 Q118.6133 11.8477 118.6133 11.4922 L118.6133 2.9609 L114.5508 2.9609 Q113.8906 2.9609 113.332 3.1133 L112.875 2.6562 L118.5117 2.6562 L119.0195 2.1484 L119.7305 2.8594 L119.3242 3.1641 L119.3242 11.543 Q119.3242 12.2031 119.0957 12.5078 Q118.8672 12.8125 118.1562 13.1172 Q117.75 12.2539 116.582 11.9492 Z"
                  style="clip-path:url(#clipPath11); stroke:none;"/>
        </g>
        <g style="text-rendering:optimizeLegibility; font-size:13px; font-family:'Times New Roman'; color-interpolation:linearRGB; color-rendering:optimizeQuality; image-rendering:optimizeQuality;">
            <rect x="249" y="573" width="300"
                  style="fill:none; clip-path:url(#clipPath1);" height="18"/>
        </g>
        <g transform="translate(710.7988,73.6167)"
           style="font-size:13px; fill:blue; text-rendering:optimizeLegibility; image-rendering:optimizeQuality; color-rendering:optimizeQuality; font-family:'Times New Roman'; stroke:blue; color-interpolation:linearRGB;">
            <path d="M0 7.5 L14 7.5 M7.5 0 L7.5 14"
                  style="fill:none; clip-path:url(#clipPath13);"/>
            <path d="M0 7.5 L14 7.5 M7.5 0 L7.5 14"
                  style="fill:none; clip-path:url(#clipPath14);"
                  transform="translate(-147.3997,105.6239)"/>
            <path d="M0 7.5 L14 7.5 M7.5 0 L7.5 14"
                  style="fill:none; clip-path:url(#clipPath15);"
                  transform="translate(-294.7995,192.0434)"/>
            <path d="M0 7.5 L14 7.5 M7.5 0 L7.5 14"
                  style="fill:none; clip-path:url(#clipPath16);"
                  transform="translate(-442.1992,297.6672)"/>
            <path d="M0 7.5 L14 7.5 M7.5 0 L7.5 14"
                  style="fill:none; clip-path:url(#clipPath17);"
                  transform="translate(-589.599,384.0868)"/>
        </g>
        <g style="stroke-linecap:butt; font-size:13px; fill:red; text-rendering:optimizeLegibility; image-rendering:optimizeQuality; color-rendering:optimizeQuality; font-family:'Times New Roman'; stroke-linejoin:round; stroke:red; color-interpolation:linearRGB; stroke-width:1.5;"
           transform="translate(5,20)">
            <path d="M50 497.0552 L53.8748 494.531 L57.2463 492.3347 L61.0379 489.8647 L64.8546 487.3783 L68.6532 484.9038 L72.175 482.6096 L75.8216 480.2341 L79.5929 477.7773 L83.3521 475.3284 L87.2189 472.8094 L90.6248 470.5907 L94.459 468.0929 L98.309 465.5849 L102.0192 463.168 L105.3883 460.9732 L109.3946 458.3633 L112.7885 456.1525 L116.7363 453.5807 L120.2308 451.3042 L124.0649 448.8066 L127.7158 446.4283 L131.5251 443.9467 L135.0233 441.6678 L138.7965 439.2098 L142.7159 436.6566 L146.1277 434.4341 L149.8125 432.0336 L153.6193 429.5537 L157.3435 427.1277 L160.9468 424.7803 L164.9478 422.174 L168.5428 419.832 L172.3812 417.3315 L175.8594 415.0657 L179.662 412.5886 L183.2399 410.2578 L186.9799 407.8214 L190.6364 405.4394 L194.4644 402.9457 L198.1512 400.544 L201.9216 398.0878 L205.6607 395.652 L209.0965 393.4138 L213.0344 390.8485 L216.5565 388.5541 L220.3117 386.1078 L223.906 383.7664 L227.897 381.1665 L231.3529 378.9152 L235.2753 376.3599 L238.8503 374.0311 L242.7606 371.4837 L246.1346 369.2858 L249.9772 366.7826 L253.689 364.3646 L257.3983 361.9482 L261.094 359.5407 L264.6444 357.2278 L268.4825 354.7276 L272.1404 352.3446 L275.9902 349.8367 L279.4753 347.5664 L283.3269 345.0574 L287.0161 342.6541 L290.6962 340.2567 L294.5402 337.7526 L298.0806 335.4462 L301.7065 333.0842 L305.7099 330.4762 L309.3347 328.1149 L313.0417 325.7 L316.8116 323.2441 L320.2769 320.9868 L323.9708 318.5804 L327.6366 316.1924 L331.5578 313.6379 L335.0181 311.3838 L339.0106 308.7829 L342.6136 306.4359 L346.1785 304.1135 L350.0118 301.6163 L353.8608 299.1089 L357.3627 296.8277 L361.0816 294.405 L364.7109 292.0408 L368.6451 289.4779 L372.0493 287.2603 L375.9591 284.7133 L379.6345 282.319 L383.2745 279.9478 L386.9173 277.5747 L390.6328 275.1544 L394.571 272.5888 L398.1821 270.2364 L401.7467 267.9143 L405.5571 265.432 L409.3593 262.9551 L412.772 260.732 L416.8145 258.0985 L420.1971 255.895 L424.1535 253.3177 L427.9294 250.8578 L431.301 248.6615 L435.0925 246.1916 L438.9093 243.7052 L442.7079 241.2307 L446.2296 238.9364 L449.8762 236.5609 L453.6475 234.1042 L457.4067 231.6553 L461.2736 229.1363 L464.6794 226.9176 L468.5136 224.4198 L472.3636 221.9118 L476.0738 219.4948 L479.443 217.3 L483.4492 214.6902 L486.8431 212.4793 L490.791 209.9076 L494.2855 207.6311 L498.1195 205.1335 L501.7704 202.7551 L505.5797 200.2736 L509.0779 197.9947 L512.8512 195.5367 L516.7705 192.9835 L520.1823 190.7609 L523.8671 188.3605 L527.674 185.8806 L531.3981 183.4545 L535.0015 181.1071 L539.0024 178.5008 L542.5974 176.1589 L546.4358 173.6584 L549.9141 171.3926 L553.7166 168.9154 L557.2946 166.5846 L561.0345 164.1483 L564.691 161.7663 L568.519 159.2726 L572.2059 156.8708 L575.9762 154.4147 L579.7153 151.9789 L583.1511 149.7407 L587.089 147.1754 L590.6111 144.881 L594.3664 142.4346 L597.9606 140.0932 L601.9516 137.4933 L605.4075 135.242 L609.33 132.6868 L612.9049 130.358 L616.8152 127.8106 L620.1893 125.6127 L624.0319 123.1094 L627.7436 120.6915 L631.4529 118.2751 L635.1486 115.8676 L638.699 113.5547 L642.5371 111.0544 L646.195 108.6715 L650.0449 106.1636 L653.5299 103.8933 L657.3815 101.3842 L661.0707 98.981 L664.7509 96.5836 L668.5948 94.0795 L672.1353 91.7731 L675.7611 89.411 L679.7646 86.8031 L683.3893 84.4418 L687.0963 82.0269 L690.8663 79.571 L694.3315 77.3136 L698.0255 74.9073 L701.6912 72.5193 L705.6124 69.9648 L709.0728 67.7106 L713.0652 65.1097 L716.6682 62.7627 L720.2331 60.4404 L724.0665 57.9431 L727.9154 55.4359 L731.4174 53.1545 L735.1362 50.7319 L738.7656 48.3676 L742.6997 45.8048 L746.1039 43.5872 L750.0137 41.0402 L753.6891 38.6458 L757.329 36.2747 L760.9719 33.9016 L764.6874 31.4812 L768.6257 28.9156 L772.2367 26.5633 L775.8013 24.2412 L779.6118 21.7589 L783.4139 19.282 L786.9987 16.9467"
                  style="fill:none; clip-path:url(#clipPath18);"/>
        </g>
        <g style="color-rendering:optimizeQuality; color-interpolation:linearRGB; text-rendering:optimizeLegibility; stroke:lime; stroke-linecap:butt; fill:lime; stroke-dasharray:2,5; stroke-width:1.5; font-family:'Times New Roman'; stroke-linejoin:round; font-size:13px; image-rendering:optimizeQuality;"
           transform="translate(5,20)">
            <path d="M51.8425 511 L55.5275 508.4846 L59.2125 505.9694 L62.8975 503.4546 L66.5825 500.94 L70.2675 498.4258 L73.9525 495.9119 L77.6375 493.3983 L81.3224 490.885 L85.0074 488.3721 L88.6924 485.8595 L92.3774 483.3473 L96.0624 480.8355 L99.7474 478.324 L103.4324 475.8129 L107.1174 473.3022 L110.8024 470.7919 L114.4874 468.282 L118.1724 465.7726 L121.8574 463.2635 L125.5424 460.7549 L129.2274 458.2468 L132.9124 455.7392 L136.5974 453.232 L140.2823 450.7253 L143.9673 448.2191 L147.6523 445.7134 L151.3373 443.2083 L155.0223 440.7037 L158.7073 438.1997 L162.3923 435.6962 L166.0773 433.1934 L169.7623 430.6911 L173.4473 428.1895 L177.1323 425.6884 L180.8173 423.1881 L184.5023 420.6884 L188.1873 418.1894 L191.8723 415.6911 L195.5573 413.1935 L199.2422 410.6967 L202.9272 408.2007 L206.6122 405.7054 L210.2972 403.2109 L213.9822 400.7173 L217.6672 398.2245 L221.3522 395.7326 L225.0372 393.2416 L228.7222 390.7515 L232.4072 388.2624 L236.0922 385.7742 L239.7772 383.287 L243.4622 380.8009 L247.1472 378.3158 L250.8322 375.8317 L254.5172 373.3488 L258.2021 370.8671 L261.8871 368.3864 L265.5721 365.907 L269.2571 363.4288 L272.9421 360.9519 L276.6271 358.4763 L280.3121 356.0019 L283.9971 353.5289 L287.6821 351.0574 L291.3671 348.5872 L295.0521 346.1185 L298.7371 343.6513 L302.4221 341.1856 L306.1071 338.7214 L309.7921 336.2589 L313.477 333.798 L317.162 331.3387 L320.847 328.8812 L324.532 326.4254 L328.217 323.9714 L331.902 321.5192 L335.587 319.0688 L339.272 316.6203 L342.957 314.1737 L346.642 311.7291 L350.327 309.2864 L354.012 306.8457 L357.697 304.4071 L361.382 301.9705 L365.067 299.5361 L368.752 297.1038 L372.437 294.6736 L376.1219 292.2456 L379.8069 289.8198 L383.4919 287.3962 L387.1769 284.9749 L390.8619 282.5558 L394.5469 280.139 L398.2319 277.7245 L401.9169 275.3123 L405.6019 272.9024 L409.2869 270.4949 L412.9719 268.0897 L416.6569 265.6868 L420.3419 263.2863 L424.0269 260.8881 L427.7118 258.4922 L431.3968 256.0986 L435.0818 253.7074 L438.7668 251.3185 L442.4518 248.9319 L446.1368 246.5476 L449.8218 244.1656 L453.5068 241.7859 L457.1918 239.4084 L460.8768 237.0331 L464.5618 234.66 L468.2468 232.2891 L471.9318 229.9204 L475.6168 227.5537 L479.3017 225.1892 L482.9867 222.8268 L486.6717 220.4663 L490.3568 218.1079 L494.0417 215.7515 L497.7267 213.397 L501.4117 211.0444 L505.0967 208.6937 L508.7817 206.3448 L512.4667 203.9977 L516.1517 201.6525 L519.8367 199.3089 L523.5217 196.9671 L527.2067 194.6269 L530.8916 192.2884 L534.5767 189.9514 L538.2617 187.616 L541.9467 185.2822 L545.6317 182.9498 L549.3167 180.6188 L553.0016 178.2894 L556.6866 175.9612 L560.3716 173.6345 L564.0566 171.3091 L567.7416 168.9849 L571.4266 166.662 L575.1116 164.3404 L578.7966 162.0199 L582.4816 159.7006 L586.1666 157.3824 L589.8516 155.0653 L593.5366 152.7494 L597.2216 150.4344 L600.9066 148.1205 L604.5916 145.8076 L608.2766 143.4957 L611.9615 141.1847 L615.6465 138.8746 L619.3315 136.5654 L623.0165 134.2571 L626.7015 131.9497 L630.3865 129.6431 L634.0715 127.3372 L637.7565 125.0322 L641.4415 122.7279 L645.1265 120.4244 L648.8115 118.1216 L652.4965 115.8195 L656.1815 113.5181 L659.8665 111.2174 L663.5514 108.9174 L667.2364 106.6179 L670.9214 104.3191 L674.6064 102.0209 L678.2914 99.7232 L681.9764 97.4262 L685.6614 95.1297 L689.3464 92.8338 L693.0314 90.5383 L696.7164 88.2434 L700.4014 85.949 L704.0864 83.6551 L707.7714 81.3617 L711.4564 79.0688 L715.1413 76.7762 L718.8264 74.4842 L722.5114 72.1926 L726.1964 69.9013 L729.8813 67.6106 L733.5663 65.3202 L737.2513 63.0302 L740.9363 60.7406 L744.6213 58.4513 L748.3063 56.1625 L751.9913 53.874 L755.6763 51.5858 L759.3613 49.298 L763.0463 47.0105 L766.7313 44.7233 L770.4163 42.4365 L774.1013 40.1499 L777.7863 37.8637 L781.4713 35.5778 L785.1562 33.2921"
                  style="fill:none; clip-path:url(#clipPath18); opacity:0.949;"/>
        </g>
        <g style="color-rendering:optimizeQuality; color-interpolation:linearRGB; text-rendering:optimizeLegibility; stroke:lime; stroke-linecap:butt; fill:lime; stroke-dasharray:2,5; stroke-width:1.5; font-family:'Times New Roman'; stroke-linejoin:round; font-size:13px; image-rendering:optimizeQuality;"
           transform="translate(5,20)">
            <path d="M51.8425 480.7099 L55.5275 478.4242 L59.2125 476.1383 L62.8975 473.852 L66.5825 471.5655 L70.2675 469.2786 L73.9525 466.9915 L77.6375 464.704 L81.3224 462.4162 L85.0074 460.128 L88.6924 457.8395 L92.3774 455.5506 L96.0624 453.2614 L99.7474 450.9718 L103.4324 448.6818 L107.1174 446.3914 L110.8024 444.1006 L114.4874 441.8094 L118.1724 439.5178 L121.8574 437.2257 L125.5424 434.9332 L129.2274 432.6403 L132.9124 430.3468 L136.5974 428.0529 L140.2823 425.7585 L143.9673 423.4636 L147.6523 421.1682 L151.3373 418.8723 L155.0223 416.5758 L158.7073 414.2787 L162.3923 411.9811 L166.0773 409.6829 L169.7623 407.3841 L173.4473 405.0846 L177.1323 402.7845 L180.8173 400.4838 L184.5023 398.1824 L188.1873 395.8803 L191.8723 393.5775 L195.5573 391.274 L199.2422 388.9698 L202.9272 386.6647 L206.6122 384.3589 L210.2972 382.0523 L213.9822 379.7448 L217.6672 377.4365 L221.3522 375.1273 L225.0372 372.8173 L228.7222 370.5063 L232.4072 368.1943 L236.0922 365.8814 L239.7772 363.5675 L243.4622 361.2526 L247.1472 358.9366 L250.8322 356.6196 L254.5172 354.3014 L258.2021 351.9821 L261.8871 349.6616 L265.5721 347.34 L269.2571 345.0171 L272.9421 342.6929 L276.6271 340.3675 L280.3121 338.0407 L283.9971 335.7126 L287.6821 333.3831 L291.3671 331.0522 L295.0521 328.7198 L298.7371 326.3859 L302.4221 324.0505 L306.1071 321.7136 L309.7921 319.375 L313.477 317.0349 L317.162 314.693 L320.847 312.3495 L324.532 310.0042 L328.217 307.6571 L331.902 305.3083 L335.587 302.9576 L339.272 300.605 L342.957 298.2505 L346.642 295.894 L350.327 293.5356 L354.012 291.1752 L357.697 288.8127 L361.382 286.4482 L365.067 284.0816 L368.752 281.7128 L372.437 279.3419 L376.1219 276.9689 L379.8069 274.5936 L383.4919 272.2161 L387.1769 269.8363 L390.8619 267.4543 L394.5469 265.07 L398.2319 262.6834 L401.9169 260.2945 L405.6019 257.9033 L409.2869 255.5098 L412.9719 253.1139 L416.6569 250.7157 L420.3419 248.3152 L424.0269 245.9123 L427.7118 243.507 L431.3968 241.0995 L435.0818 238.6896 L438.7668 236.2775 L442.4518 233.8629 L446.1368 231.4462 L449.8218 229.0271 L453.5068 226.6057 L457.1918 224.1822 L460.8768 221.7564 L464.5618 219.3284 L468.2468 216.8982 L471.9318 214.4659 L475.6168 212.0314 L479.3017 209.5949 L482.9867 207.1562 L486.6717 204.7156 L490.3568 202.2729 L494.0417 199.8282 L497.7267 197.3817 L501.4117 194.9331 L505.0967 192.4828 L508.7817 190.0305 L512.4667 187.5765 L516.1517 185.1207 L519.8367 182.6632 L523.5217 180.2039 L527.2067 177.743 L530.8916 175.2805 L534.5767 172.8164 L538.2617 170.3507 L541.9467 167.8835 L545.6317 165.4148 L549.3167 162.9446 L553.0016 160.473 L556.6866 158 L560.3716 155.5257 L564.0566 153.0501 L567.7416 150.5732 L571.4266 148.0949 L575.1116 145.6155 L578.7966 143.1349 L582.4816 140.6531 L586.1666 138.1702 L589.8516 135.6862 L593.5366 133.2011 L597.2216 130.7149 L600.9066 128.2278 L604.5916 125.7396 L608.2766 123.2504 L611.9615 120.7603 L615.6465 118.2693 L619.3315 115.7774 L623.0165 113.2846 L626.7015 110.791 L630.3865 108.2965 L634.0715 105.8013 L637.7565 103.3052 L641.4415 100.8084 L645.1265 98.3109 L648.8115 95.8126 L652.4965 93.3136 L656.1815 90.8139 L659.8665 88.3135 L663.5514 85.8125 L667.2364 83.3109 L670.9214 80.8086 L674.6064 78.3057 L678.2914 75.8022 L681.9764 73.2982 L685.6614 70.7936 L689.3464 68.2885 L693.0314 65.7828 L696.7164 63.2767 L700.4014 60.77 L704.0864 58.2628 L707.7714 55.7551 L711.4564 53.247 L715.1413 50.7384 L718.8264 48.2294 L722.5114 45.7199 L726.1964 43.2101 L729.8813 40.6998 L733.5663 38.1891 L737.2513 35.6779 L740.9363 33.1665 L744.6213 30.6546 L748.3063 28.1424 L751.9913 25.6299 L755.6763 23.1169 L759.3613 20.6036 L763.0463 18.0901 L766.7313 15.5761 L770.4163 13.0619 L774.1013 10.5474 L777.7863 8.0325 L781.4713 5.5174 L785.1562 3.002"
                  style="fill:none; clip-path:url(#clipPath18); opacity:0.949;"/>
        </g>
        <g transform="translate(5,20)"
           style="stroke-linecap:butt; font-size:13px; text-rendering:optimizeLegibility; image-rendering:optimizeQuality; color-rendering:optimizeQuality; font-family:'Times New Roman'; stroke-linejoin:round; color-interpolation:linearRGB;">
            <path d="M48 513 L788.9987 513"
                  style="fill:none; clip-path:url(#clipPath12);"/>
            <path d="M48 1 L788.9987 1"
                  style="fill:none; clip-path:url(#clipPath12);"/>
        </g>
        <g transform="translate(5,20)"
           style="stroke-linecap:butt; font-size:13px; text-rendering:optimizeLegibility; image-rendering:optimizeQuality; color-rendering:optimizeQuality; font-family:'Times New Roman'; stroke-linejoin:round; color-interpolation:linearRGB;">
            <path d="M419.082 540.333 L420.5029 542.4521 Q421.0938 543.3311 421.3794 543.563 Q421.665 543.7949 422.1045 543.8193 L422.1045 544 L419.2627 544 L419.2627 543.8193 Q419.5459 543.8145 419.6826 543.7607 Q419.7852 543.7168 419.8511 543.6265 Q419.917 543.5361 419.917 543.4434 Q419.917 543.3311 419.873 543.2188 Q419.8389 543.1357 419.6045 542.7891 L418.4814 541.0898 L417.0947 542.8672 Q416.875 543.1504 416.8311 543.2456 Q416.7871 543.3408 416.7871 543.4434 Q416.7871 543.5996 416.9189 543.7021 Q417.0508 543.8047 417.4219 543.8193 L417.4219 544 L415.0732 544 L415.0732 543.8193 Q415.3223 543.7949 415.5029 543.7168 Q415.8057 543.5898 416.0791 543.375 Q416.3525 543.1602 416.7041 542.7158 L418.2666 540.7432 L416.9629 538.834 Q416.4307 538.0576 416.0596 537.8159 Q415.6885 537.5742 415.2051 537.5596 L415.2051 537.3789 L418.2666 537.3789 L418.2666 537.5596 Q417.876 537.5742 417.7319 537.6865 Q417.5879 537.7988 417.5879 537.9355 Q417.5879 538.1162 417.8223 538.4629 L418.8379 539.9814 L420.0146 538.4922 Q420.2197 538.2285 420.2661 538.1309 Q420.3125 538.0332 420.3125 537.9307 Q420.3125 537.8281 420.2539 537.75 Q420.1807 537.6475 420.0684 537.606 Q419.9561 537.5645 419.6045 537.5596 L419.6045 537.3789 L421.9531 537.3789 L421.9531 537.5596 Q421.6748 537.5742 421.499 537.6475 Q421.2354 537.7598 421.0156 537.9502 Q420.7959 538.1406 420.3955 538.6533 Z"
                  style="stroke:none; clip-path:url(#clipPath19);"/>
        </g>
        <g transform="translate(5,20)"
           style="font-size:13px; text-rendering:optimizeLegibility; color-rendering:optimizeQuality; image-rendering:optimizeQuality; font-family:'Times New Roman'; color-interpolation:linearRGB;">
            <path d="M124 513 L124 520"
                  style="fill:none; clip-path:url(#clipPath12);"/>
            <path d="M126.5234 545.2368 L128.6182 544.2148 L128.8276 544.2148 L128.8276 551.4829 Q128.8276 552.2065 128.8879 552.3843 Q128.9482 552.562 129.1387 552.6572 Q129.3291 552.7524 129.9131 552.7651 L129.9131 553 L126.6758 553 L126.6758 552.7651 Q127.2852 552.7524 127.4629 552.6604 Q127.6406 552.5684 127.7104 552.4128 Q127.7803 552.2573 127.7803 551.4829 L127.7803 546.8364 Q127.7803 545.897 127.7168 545.6304 Q127.6724 545.4272 127.5549 545.332 Q127.4375 545.2368 127.2725 545.2368 Q127.0376 545.2368 126.6187 545.4336 Z"
                  style="clip-path:url(#clipPath20); stroke:none;"
                  transform="translate(-5,-20)"/>
        </g>
        <g transform="translate(5,20)"
           style="font-size:13px; text-rendering:optimizeLegibility; color-rendering:optimizeQuality; image-rendering:optimizeQuality; font-family:'Times New Roman'; color-interpolation:linearRGB;">
            <path d="M271 513 L271 520"
                  style="fill:none; clip-path:url(#clipPath12);"/>
            <path d="M278.9604 551.3433 L278.3574 553 L273.2793 553 L273.2793 552.7651 Q275.52 550.7212 276.4341 549.4263 Q277.3481 548.1313 277.3481 547.0586 Q277.3481 546.2397 276.8467 545.7129 Q276.3452 545.186 275.647 545.186 Q275.0122 545.186 274.5076 545.5574 Q274.0029 545.9287 273.7617 546.646 L273.5269 546.646 Q273.6855 545.4717 274.3425 544.8433 Q274.9995 544.2148 275.9834 544.2148 Q277.0308 544.2148 277.7322 544.8877 Q278.4336 545.5605 278.4336 546.4746 Q278.4336 547.1284 278.1289 547.7822 Q277.6592 548.8105 276.6055 549.9595 Q275.0249 551.686 274.6313 552.0415 L276.8784 552.0415 Q277.564 552.0415 277.8401 551.9907 Q278.1162 551.9399 278.3384 551.7844 Q278.5605 551.6289 278.7256 551.3433 Z"
                  style="clip-path:url(#clipPath20); stroke:none;"
                  transform="translate(-5,-20)"/>
        </g>
        <g transform="translate(5,20)"
           style="font-size:13px; text-rendering:optimizeLegibility; color-rendering:optimizeQuality; image-rendering:optimizeQuality; font-family:'Times New Roman'; color-interpolation:linearRGB;">
            <path d="M418 513 L418 520"
                  style="fill:none; clip-path:url(#clipPath12);"/>
            <path d="M420.6602 546.0303 Q421.0283 545.1606 421.5901 544.6877 Q422.1519 544.2148 422.9897 544.2148 Q424.0244 544.2148 424.5767 544.8877 Q424.9956 545.3892 424.9956 545.9604 Q424.9956 546.8999 423.8149 547.9028 Q424.6084 548.2139 425.0146 548.7915 Q425.4209 549.3691 425.4209 550.1499 Q425.4209 551.2671 424.71 552.0859 Q423.7832 553.1523 422.0249 553.1523 Q421.1553 553.1523 420.8411 552.9365 Q420.5269 552.7207 420.5269 552.4731 Q420.5269 552.2891 420.676 552.1494 Q420.8252 552.0098 421.0347 552.0098 Q421.1934 552.0098 421.3584 552.0605 Q421.4663 552.0923 421.8472 552.2922 Q422.228 552.4922 422.374 552.5303 Q422.6089 552.6001 422.8755 552.6001 Q423.5229 552.6001 424.0022 552.0986 Q424.4814 551.5972 424.4814 550.9116 Q424.4814 550.4102 424.2593 549.9341 Q424.0942 549.5786 423.8975 549.3945 Q423.6245 549.1406 423.1484 548.9343 Q422.6724 548.728 422.1772 548.728 L421.9741 548.728 L421.9741 548.5376 Q422.4756 548.4741 422.9802 548.1758 Q423.4849 547.8774 423.7134 547.4585 Q423.9419 547.0396 423.9419 546.5381 Q423.9419 545.8843 423.5325 545.4812 Q423.123 545.0781 422.5137 545.0781 Q421.5298 545.0781 420.8696 546.1318 Z"
                  style="clip-path:url(#clipPath20); stroke:none;"
                  transform="translate(-5,-20)"/>
        </g>
        <g transform="translate(5,20)"
           style="font-size:13px; text-rendering:optimizeLegibility; color-rendering:optimizeQuality; image-rendering:optimizeQuality; font-family:'Times New Roman'; color-interpolation:linearRGB;">
            <path d="M566 513 L566 520"
                  style="fill:none; clip-path:url(#clipPath12);"/>
            <path d="M573.0493 549.8262 L573.0493 550.7275 L571.894 550.7275 L571.894 553 L570.8467 553 L570.8467 550.7275 L567.2031 550.7275 L567.2031 549.915 L571.1958 544.2148 L571.894 544.2148 L571.894 549.8262 ZM570.8467 549.8262 L570.8467 545.5542 L567.8252 549.8262 Z"
                  style="clip-path:url(#clipPath20); stroke:none;"
                  transform="translate(-5,-20)"/>
        </g>
        <g transform="translate(5,20)"
           style="font-size:13px; text-rendering:optimizeLegibility; color-rendering:optimizeQuality; image-rendering:optimizeQuality; font-family:'Times New Roman'; color-interpolation:linearRGB;">
            <path d="M713 513 L713 520"
                  style="fill:none; clip-path:url(#clipPath12);"/>
            <path d="M720.6431 544.3926 L720.1479 545.4717 L717.5581 545.4717 L716.9932 546.627 Q718.6753 546.8745 719.6592 547.8774 Q720.5034 548.7407 720.5034 549.9087 Q720.5034 550.5879 720.2273 551.1655 Q719.9512 551.7432 719.5322 552.1494 Q719.1133 552.5557 718.5991 552.8032 Q717.8691 553.1523 717.1011 553.1523 Q716.3267 553.1523 715.9744 552.8889 Q715.6221 552.6255 715.6221 552.3081 Q715.6221 552.1304 715.7681 551.9939 Q715.9141 551.8574 716.1362 551.8574 Q716.3013 551.8574 716.425 551.9082 Q716.5488 551.959 716.8472 552.1685 Q717.3232 552.4985 717.812 552.4985 Q718.5547 552.4985 719.1165 551.9368 Q719.6782 551.375 719.6782 550.5688 Q719.6782 549.7881 719.1768 549.1121 Q718.6753 548.436 717.793 548.0679 Q717.1011 547.7822 715.9077 547.7378 L717.5581 544.3926 Z"
                  style="clip-path:url(#clipPath20); stroke:none;"
                  transform="translate(-5,-20)"/>
        </g>
        <g transform="translate(5,20)"
           style="font-size:13px; text-rendering:optimizeLegibility; color-rendering:optimizeQuality; image-rendering:optimizeQuality; font-family:'Times New Roman'; color-interpolation:linearRGB;">
            <path d="M50 513 L50 517"
                  style="fill:none; clip-path:url(#clipPath12);"/>
        </g>
        <g transform="translate(5,20)"
           style="font-size:13px; text-rendering:optimizeLegibility; color-rendering:optimizeQuality; image-rendering:optimizeQuality; font-family:'Times New Roman'; color-interpolation:linearRGB;">
            <path d="M197 513 L197 517"
                  style="fill:none; clip-path:url(#clipPath12);"/>
        </g>
        <g transform="translate(5,20)"
           style="font-size:13px; text-rendering:optimizeLegibility; color-rendering:optimizeQuality; image-rendering:optimizeQuality; font-family:'Times New Roman'; color-interpolation:linearRGB;">
            <path d="M345 513 L345 517"
                  style="fill:none; clip-path:url(#clipPath12);"/>
        </g>
        <g transform="translate(5,20)"
           style="font-size:13px; text-rendering:optimizeLegibility; color-rendering:optimizeQuality; image-rendering:optimizeQuality; font-family:'Times New Roman'; color-interpolation:linearRGB;">
            <path d="M492 513 L492 517"
                  style="fill:none; clip-path:url(#clipPath12);"/>
        </g>
        <g transform="translate(5,20)"
           style="font-size:13px; text-rendering:optimizeLegibility; color-rendering:optimizeQuality; image-rendering:optimizeQuality; font-family:'Times New Roman'; color-interpolation:linearRGB;">
            <path d="M640 513 L640 517"
                  style="fill:none; clip-path:url(#clipPath12);"/>
        </g>
        <g transform="translate(5,20)"
           style="font-size:13px; text-rendering:optimizeLegibility; color-rendering:optimizeQuality; image-rendering:optimizeQuality; font-family:'Times New Roman'; color-interpolation:linearRGB;">
            <path d="M787 513 L787 517"
                  style="fill:none; clip-path:url(#clipPath12);"/>
        </g>
        <g transform="translate(5,20)"
           style="stroke-linecap:butt; font-size:13px; text-rendering:optimizeLegibility; image-rendering:optimizeQuality; color-rendering:optimizeQuality; font-family:'Times New Roman'; stroke-linejoin:round; color-interpolation:linearRGB;">
            <path d="M48 513 L48 1.002"
                  style="fill:none; clip-path:url(#clipPath12);"/>
            <path d="M789 513 L789 1.002"
                  style="fill:none; clip-path:url(#clipPath12);"/>
        </g>
        <g transform="translate(5,20)"
           style="stroke-linecap:butt; font-size:13px; text-rendering:optimizeLegibility; image-rendering:optimizeQuality; color-rendering:optimizeQuality; font-family:'Times New Roman'; stroke-linejoin:round; color-interpolation:linearRGB;">
            <path d="M10.7656 253.3789 L13.0752 253.3789 L13.0752 253.5596 L12.9482 253.5596 Q12.8213 253.5596 12.5771 253.6719 Q12.333 253.7842 12.1328 253.9941 Q11.9326 254.2041 11.6396 254.6777 L10.043 257.1924 L10.043 258.8525 Q10.043 259.4629 10.1797 259.6143 Q10.3652 259.8193 10.7656 259.8193 L10.9805 259.8193 L10.9805 260 L8.168 260 L8.168 259.8193 L8.4023 259.8193 Q8.8223 259.8193 8.998 259.5654 Q9.1055 259.4092 9.1055 258.8525 L9.1055 257.2852 L7.2891 254.5117 Q6.9668 254.0234 6.8521 253.9014 Q6.7373 253.7793 6.376 253.6084 Q6.2783 253.5596 6.0928 253.5596 L6.0928 253.3789 L8.9248 253.3789 L8.9248 253.5596 L8.7783 253.5596 Q8.5488 253.5596 8.356 253.667 Q8.1631 253.7744 8.1631 253.9893 Q8.1631 254.165 8.4609 254.624 L9.8428 256.7578 L11.1416 254.7168 Q11.4346 254.2578 11.4346 254.0332 Q11.4346 253.8965 11.3638 253.7891 Q11.293 253.6816 11.1611 253.6206 Q11.0293 253.5596 10.7656 253.5596 Z"
                  style="stroke:none; clip-path:url(#clipPath21);"/>
        </g>
        <g transform="translate(5,20)"
           style="font-size:13px; text-rendering:optimizeLegibility; color-rendering:optimizeQuality; image-rendering:optimizeQuality; font-family:'Times New Roman'; color-interpolation:linearRGB;">
            <path d="M48 450 L41 450"
                  style="fill:none; clip-path:url(#clipPath12);"/>
            <path d="M42.9604 473.3433 L42.3574 475 L37.2793 475 L37.2793 474.7651 Q39.52 472.7212 40.4341 471.4263 Q41.3481 470.1313 41.3481 469.0586 Q41.3481 468.2397 40.8467 467.7129 Q40.3452 467.186 39.647 467.186 Q39.0122 467.186 38.5076 467.5574 Q38.0029 467.9287 37.7617 468.646 L37.5269 468.646 Q37.6855 467.4717 38.3425 466.8433 Q38.9995 466.2148 39.9834 466.2148 Q41.0308 466.2148 41.7322 466.8877 Q42.4336 467.5605 42.4336 468.4746 Q42.4336 469.1284 42.1289 469.7822 Q41.6592 470.8105 40.6055 471.9595 Q39.0249 473.686 38.6313 474.0415 L40.8784 474.0415 Q41.564 474.0415 41.8401 473.9907 Q42.1162 473.9399 42.3384 473.7844 Q42.5605 473.6289 42.7256 473.3433 Z"
                  style="clip-path:url(#clipPath20); stroke:none;"
                  transform="translate(-5,-20)"/>
        </g>
        <g transform="translate(5,20)"
           style="font-size:13px; text-rendering:optimizeLegibility; color-rendering:optimizeQuality; image-rendering:optimizeQuality; font-family:'Times New Roman'; color-interpolation:linearRGB;">
            <path d="M48 354 L41 354"
                  style="fill:none; clip-path:url(#clipPath12);"/>
            <path d="M43.0493 374.8262 L43.0493 375.7275 L41.894 375.7275 L41.894 378 L40.8467 378 L40.8467 375.7275 L37.2031 375.7275 L37.2031 374.915 L41.1958 369.2148 L41.894 369.2148 L41.894 374.8262 ZM40.8467 374.8262 L40.8467 370.5542 L37.8252 374.8262 Z"
                  style="clip-path:url(#clipPath20); stroke:none;"
                  transform="translate(-5,-20)"/>
        </g>
        <g transform="translate(5,20)"
           style="font-size:13px; text-rendering:optimizeLegibility; color-rendering:optimizeQuality; image-rendering:optimizeQuality; font-family:'Times New Roman'; color-interpolation:linearRGB;">
            <path d="M48 258 L41 258"
                  style="fill:none; clip-path:url(#clipPath12);"/>
            <path d="M42.8271 273.2148 L42.8271 273.4497 Q41.9893 273.5322 41.4592 273.783 Q40.9292 274.0337 40.4119 274.5479 Q39.8945 275.062 39.5549 275.6936 Q39.2153 276.3252 38.9868 277.1948 Q39.9009 276.5664 40.8213 276.5664 Q41.7036 276.5664 42.3511 277.2773 Q42.9985 277.9883 42.9985 279.1055 Q42.9985 280.1846 42.3447 281.0732 Q41.5576 282.1523 40.2627 282.1523 Q39.3804 282.1523 38.7646 281.5684 Q37.5586 280.4321 37.5586 278.623 Q37.5586 277.4678 38.022 276.4268 Q38.4854 275.3857 39.3455 274.5796 Q40.2056 273.7734 40.9927 273.4941 Q41.7798 273.2148 42.459 273.2148 ZM38.8789 277.6582 Q38.7646 278.5151 38.7646 279.042 Q38.7646 279.6514 38.99 280.3655 Q39.2153 281.0796 39.6597 281.4985 Q39.9834 281.7969 40.4468 281.7969 Q40.999 281.7969 41.4338 281.2764 Q41.8687 280.7559 41.8687 279.791 Q41.8687 278.7056 41.437 277.9121 Q41.0054 277.1187 40.2119 277.1187 Q39.9707 277.1187 39.6946 277.2202 Q39.4185 277.3218 38.8789 277.6582 Z"
                  style="clip-path:url(#clipPath20); stroke:none;"
                  transform="translate(-5,-20)"/>
        </g>
        <g transform="translate(5,20)"
           style="font-size:13px; text-rendering:optimizeLegibility; color-rendering:optimizeQuality; image-rendering:optimizeQuality; font-family:'Times New Roman'; color-interpolation:linearRGB;">
            <path d="M48 162 L41 162"
                  style="fill:none; clip-path:url(#clipPath12);"/>
            <path d="M39.4946 181.6646 Q38.4727 180.8267 38.1775 180.3188 Q37.8823 179.811 37.8823 179.2651 Q37.8823 178.4272 38.5298 177.821 Q39.1772 177.2148 40.25 177.2148 Q41.291 177.2148 41.9258 177.7798 Q42.5605 178.3447 42.5605 179.0684 Q42.5605 179.5508 42.2178 180.0522 Q41.875 180.5537 40.7896 181.2329 Q41.9067 182.0962 42.2686 182.5913 Q42.751 183.2388 42.751 183.9561 Q42.751 184.8638 42.0591 185.5081 Q41.3672 186.1523 40.2437 186.1523 Q39.0186 186.1523 38.333 185.3843 Q37.7871 184.7686 37.7871 184.0386 Q37.7871 183.4673 38.1711 182.9055 Q38.5552 182.3438 39.4946 181.6646 ZM40.4912 180.9854 Q41.2529 180.2998 41.4561 179.9031 Q41.6592 179.5063 41.6592 179.0049 Q41.6592 178.3384 41.2847 177.9607 Q40.9102 177.583 40.2627 177.583 Q39.6152 177.583 39.209 177.9575 Q38.8027 178.332 38.8027 178.8335 Q38.8027 179.1636 38.9709 179.4937 Q39.1392 179.8237 39.4502 180.1221 ZM39.793 181.9058 Q39.2661 182.3501 39.0122 182.8738 Q38.7583 183.3975 38.7583 184.0068 Q38.7583 184.8257 39.2058 185.3176 Q39.6533 185.8096 40.3452 185.8096 Q41.0308 185.8096 41.4434 185.4224 Q41.856 185.0352 41.856 184.4829 Q41.856 184.0259 41.6147 183.6641 Q41.1641 182.9912 39.793 181.9058 Z"
                  style="clip-path:url(#clipPath20); stroke:none;"
                  transform="translate(-5,-20)"/>
        </g>
        <g transform="translate(5,20)"
           style="font-size:13px; text-rendering:optimizeLegibility; color-rendering:optimizeQuality; image-rendering:optimizeQuality; font-family:'Times New Roman'; color-interpolation:linearRGB;">
            <path d="M48 66 L41 66"
                  style="fill:none; clip-path:url(#clipPath12);"/>
            <path d="M31.5234 82.2368 L33.6182 81.2148 L33.8276 81.2148 L33.8276 88.4829 Q33.8276 89.2065 33.8879 89.3843 Q33.9482 89.562 34.1387 89.6572 Q34.3291 89.7524 34.9131 89.7651 L34.9131 90 L31.6758 90 L31.6758 89.7651 Q32.2852 89.7524 32.4629 89.6604 Q32.6406 89.5684 32.7104 89.4128 Q32.7803 89.2573 32.7803 88.4829 L32.7803 83.8364 Q32.7803 82.897 32.7168 82.6304 Q32.6724 82.4272 32.5549 82.332 Q32.4375 82.2368 32.2725 82.2368 Q32.0376 82.2368 31.6187 82.4336 ZM36.9697 85.7471 Q36.9697 84.2744 37.4141 83.2112 Q37.8584 82.1479 38.5947 81.6274 Q39.166 81.2148 39.7754 81.2148 Q40.7656 81.2148 41.5527 82.2241 Q42.5366 83.4746 42.5366 85.6138 Q42.5366 87.1118 42.105 88.1592 Q41.6733 89.2065 41.0037 89.6794 Q40.334 90.1523 39.7119 90.1523 Q38.4805 90.1523 37.6616 88.6987 Q36.9697 87.4736 36.9697 85.7471 ZM38.2139 85.9058 Q38.2139 87.6831 38.6519 88.8066 Q39.0137 89.7524 39.731 89.7524 Q40.0737 89.7524 40.4419 89.4446 Q40.8101 89.1367 41.0005 88.4131 Q41.2925 87.3213 41.2925 85.3345 Q41.2925 83.8618 40.9878 82.8779 Q40.7593 82.1479 40.3975 81.8433 Q40.1372 81.6338 39.769 81.6338 Q39.3374 81.6338 39.001 82.021 Q38.5439 82.5479 38.3789 83.6777 Q38.2139 84.8076 38.2139 85.9058 Z"
                  style="clip-path:url(#clipPath20); stroke:none;"
                  transform="translate(-5,-20)"/>
        </g>
        <g transform="translate(5,20)"
           style="font-size:13px; text-rendering:optimizeLegibility; color-rendering:optimizeQuality; image-rendering:optimizeQuality; font-family:'Times New Roman'; color-interpolation:linearRGB;">
            <path d="M48 498 L45 498"
                  style="fill:none; clip-path:url(#clipPath12);"/>
        </g>
        <g transform="translate(5,20)"
           style="font-size:13px; text-rendering:optimizeLegibility; color-rendering:optimizeQuality; image-rendering:optimizeQuality; font-family:'Times New Roman'; color-interpolation:linearRGB;">
            <path d="M48 402 L45 402"
                  style="fill:none; clip-path:url(#clipPath12);"/>
        </g>
        <g transform="translate(5,20)"
           style="font-size:13px; text-rendering:optimizeLegibility; color-rendering:optimizeQuality; image-rendering:optimizeQuality; font-family:'Times New Roman'; color-interpolation:linearRGB;">
            <path d="M48 306 L45 306"
                  style="fill:none; clip-path:url(#clipPath12);"/>
        </g>
        <g transform="translate(5,20)"
           style="font-size:13px; text-rendering:optimizeLegibility; color-rendering:optimizeQuality; image-rendering:optimizeQuality; font-family:'Times New Roman'; color-interpolation:linearRGB;">
            <path d="M48 210 L45 210"
                  style="fill:none; clip-path:url(#clipPath12);"/>
        </g>
        <g transform="translate(5,20)"
           style="font-size:13px; text-rendering:optimizeLegibility; color-rendering:optimizeQuality; image-rendering:optimizeQuality; font-family:'Times New Roman'; color-interpolation:linearRGB;">
            <path d="M48 114 L45 114"
                  style="fill:none; clip-path:url(#clipPath12);"/>
        </g>
        <g transform="translate(5,20)"
           style="font-size:13px; text-rendering:optimizeLegibility; color-rendering:optimizeQuality; image-rendering:optimizeQuality; font-family:'Times New Roman'; color-interpolation:linearRGB;">
            <path d="M48 18 L45 18"
                  style="fill:none; clip-path:url(#clipPath12);"/>
        </g>
        <g transform="translate(5,5)"
           style="stroke-linecap:butt; font-size:13px; text-rendering:optimizeLegibility; image-rendering:optimizeQuality; color-rendering:optimizeQuality; font-family:'SimSun'; stroke-linejoin:round; color-interpolation:linearRGB; stroke-width:1.5;">
            <path d="M324.7109 6.6172 L334.1562 6.6172 L335.1719 5.8047 L336.2891 6.9219 L326.5391 6.9219 Q325.7266 6.9219 325.168 7.0742 ZM338.0664 5.8555 L347.1562 5.8555 L347.918 5.0938 L348.9844 6.1602 L345.125 6.1602 L345.125 11.0859 Q345.125 12.0508 346.2422 11.9492 L347.4102 11.9492 Q348.1719 11.9492 348.2988 11.1875 Q348.4258 10.4258 348.5273 9.1562 L348.7812 9.1562 Q348.7812 10.5781 348.8828 11.1367 Q348.9844 11.6953 349.4414 11.8477 Q348.9336 12.6094 347.9688 12.6094 L345.7852 12.6094 Q344.3633 12.6602 344.3633 11.4922 L344.3633 6.1602 L342.5352 6.1602 Q342.2812 9.4609 341.2402 10.8574 Q340.1992 12.2539 337.7109 13.2695 L337.6094 13.1172 Q340.1992 11.5938 340.9102 9.9688 Q341.6211 8.3438 341.7227 6.1602 L339.7422 6.1602 Q339.082 6.1602 338.5234 6.3125 ZM339.5391 2.6055 L346.1406 2.6055 L346.8516 1.8945 L347.8672 2.9102 L341.1133 2.9102 Q340.4531 2.9102 339.9961 3.0625 ZM357.9219 5.0938 Q357.9219 5.8047 358.0234 6.9727 L360.4102 6.7188 L361.0703 5.957 L362.0859 6.8203 L358.0742 7.2266 Q358.2266 8.8008 358.582 9.7148 Q359.6992 8.6992 360.3594 7.582 L361.2734 8.4961 L360.8164 8.5469 Q359.8516 9.4609 358.8867 10.375 Q359.8008 11.6445 361.0195 12.1523 L361.7305 9.7148 L361.9336 9.7656 Q361.832 10.9336 361.8066 11.6953 Q361.7812 12.457 362.0352 12.9141 Q362.0859 13.0156 362.0859 13.0664 Q362.0859 13.2695 361.5527 13.1934 Q361.0195 13.1172 360.1309 12.584 Q359.2422 12.0508 358.3281 10.8828 Q357.4141 11.4922 356.4746 11.8984 Q355.5352 12.3047 354.1133 12.7109 L354.0625 12.5078 Q356.2461 11.6953 357.9727 10.2734 Q357.5156 8.9023 357.3633 7.3281 L355.2812 7.582 L354.875 7.7852 L354.3164 7.3789 L357.3125 7.0742 Q357.2617 6.3633 357.2109 5.1445 L355.7383 5.2461 L355.4336 5.4492 L354.9766 5.043 L357.2109 4.8906 Q357.1602 3.1133 357.1094 1.3359 L358.2773 1.8945 L357.8711 2.25 Q357.8711 3.3164 357.9219 4.8398 L360.1055 4.6367 L360.7656 3.875 L361.7812 4.7891 ZM358.6836 2.1992 L358.7344 2.0469 Q360.3086 2.4531 360.4609 2.7324 Q360.6133 3.0117 360.6133 3.2148 Q360.6133 3.4688 360.5117 3.7227 Q360.4102 3.9766 360.3086 3.9766 Q360.207 3.9766 360.0039 3.5703 Q359.6484 3.0117 358.6836 2.1992 ZM353.0977 1.5391 L354.1133 2.1992 Q353.707 2.3516 353.25 3.2148 Q352.793 4.1289 351.5742 5.8047 L353.6562 5.6016 Q354.2656 4.5859 354.6211 3.5703 L355.5352 4.2305 Q355.1797 4.4336 354.3164 5.7031 Q353.4531 6.9727 352.082 8.75 Q352.793 8.6484 355.2305 8.1914 L355.2305 8.3945 Q353.8594 8.75 353.0977 9.0293 Q352.3359 9.3086 351.5742 9.8164 L350.9648 8.75 Q351.5234 8.5977 352.2598 7.6582 Q352.9961 6.7188 353.5547 5.8047 Q352.9961 5.9062 352.3867 6.084 Q351.7773 6.2617 351.2695 6.7188 L350.7109 5.7539 Q351.2695 5.6523 352.0059 4.3066 Q352.7422 2.9609 353.0977 1.5391 ZM350.6602 11.2383 Q352.082 11.0352 352.9453 10.8828 Q353.8086 10.7305 355.7383 10.3242 L355.7891 10.5273 Q353.5039 11.1875 352.4629 11.5684 Q351.4219 11.9492 351.168 12.2031 ZM371.0742 4.9922 Q371.0742 2.25 371.0234 1.4375 L372.293 1.9961 L371.7852 2.3516 L371.7852 4.9922 L373.2578 4.9922 L373.9688 4.2812 L374.9844 5.2969 L371.7852 5.2969 L371.7852 8.0898 L373.1055 8.0898 L373.7656 7.4297 L374.7305 8.3945 L371.7852 8.3945 L371.7852 11.9492 L373.7656 11.9492 L374.4766 11.2383 L375.4922 12.2539 L368.8398 12.2539 Q368.1797 12.2539 367.6211 12.4062 L367.1641 11.9492 L371.0742 11.9492 L371.0742 8.3945 L370.0078 8.3945 Q369.3477 8.3945 368.7891 8.5469 L368.332 8.0898 L371.0742 8.0898 L371.0742 5.2969 L368.9922 5.2969 Q368.332 6.9219 367.5195 7.9375 L367.3672 7.8359 Q367.9766 6.6172 368.3828 5.1191 Q368.7891 3.6211 368.8906 2.6562 L370.0586 3.2148 L369.6016 3.5195 L369.0938 4.9922 ZM364.7773 4.6367 Q364.9297 6.1602 364.8281 6.541 Q364.7266 6.9219 364.498 7.0488 Q364.2695 7.1758 364.1172 7.1758 Q364.0156 7.1758 363.8379 7.0996 Q363.6602 7.0234 363.6602 6.9727 Q363.6602 6.7695 364.0156 6.3633 Q364.4727 5.8047 364.5742 4.6367 ZM366.1992 3.9766 Q367.0117 4.2812 367.3672 4.5352 Q367.7227 4.7891 367.6719 5.1953 Q367.6211 5.6016 367.418 5.7539 Q367.2148 5.9062 367.0117 5.3477 Q366.7578 4.7891 366.1992 4.2305 L366.1992 10.9844 Q366.1992 11.8477 366.25 12.8633 L365.4375 13.2188 Q365.4883 11.7461 365.4883 10.5781 L365.4883 3.418 Q365.4883 2.5547 365.4375 1.3359 L366.6562 1.8945 L366.1992 2.25 ZM380.9766 5.5 L380.9766 8.3438 L383.9727 8.3438 L383.9727 5.5 ZM380.2656 9.7656 Q380.3164 8.6484 380.3164 7.3027 Q380.3164 5.957 380.2656 4.7383 L381.0273 5.1953 L383.9219 5.1953 L384.2773 4.7383 L385.0898 5.2969 L384.6836 5.6523 Q384.6836 8.4453 384.7344 9.2578 L383.9727 9.5625 L383.9727 8.6484 L380.9766 8.6484 L380.9766 9.4609 ZM387.1719 2.9102 L387.1719 9.8164 Q387.1719 10.9844 387.2227 12.5078 L386.5117 12.8125 L386.5117 11.7969 L378.5391 11.7969 L378.5391 12.7617 L377.7773 13.0664 Q377.8281 11.6953 377.8281 7.5312 Q377.8281 3.3672 377.7773 1.9961 L378.5391 2.4531 L386.4609 2.4531 L386.7656 1.9453 L387.5781 2.5039 ZM378.5391 2.7578 L378.5391 11.4922 L386.5117 11.4922 L386.5117 2.7578 ZM391.5898 3.9766 Q391.5898 8.5977 391.6406 9.8164 L390.8281 10.2227 Q390.8789 8.3945 390.8789 6.3125 Q390.8789 4.2305 390.8281 2.9609 L391.9453 3.5703 ZM390.0156 13.168 Q391.2852 12.2539 392.1484 11.0605 Q393.0117 9.8672 393.1641 7.9375 Q393.3164 6.0078 393.3164 4.332 Q393.3164 2.6562 393.2656 1.4375 L394.5352 1.9961 L394.0781 2.4023 Q394.0781 6.4141 393.8242 8.3184 Q393.5703 10.2227 392.5039 11.3906 Q391.4375 12.5586 390.1172 13.3203 ZM400.4766 3.875 L400.4766 9.8164 Q400.4766 11.1875 400.5273 12.5078 L399.7148 12.8125 L399.7148 11.4414 L395.6016 11.4414 Q394.9414 11.4414 394.3828 11.5938 L393.9258 11.1367 L399.7148 11.1367 L399.7148 7.3281 L396.4141 7.3281 Q395.7539 7.3281 395.1953 7.4805 L394.7383 7.0234 L399.7148 7.0234 L399.7148 3.6719 L396.1602 3.6719 Q395.5 3.6719 394.9414 3.8242 L394.4844 3.3672 L399.6133 3.3672 L400.0703 2.8594 L400.8828 3.5703 ZM402.7617 9.4609 L409.6172 9.4609 L410.2773 8.8008 L411.2422 9.7656 L404.3867 9.7656 Q403.7773 9.7656 403.2188 9.918 ZM405.4531 6.7188 Q405.6562 3.6211 405.6816 2.9609 Q405.707 2.3008 405.707 1.4375 L406.875 1.9961 L406.4688 2.3008 L406.3672 4.1797 L412.3086 4.1797 L412.9688 3.5195 L413.9336 4.4844 L406.3672 4.4844 L406.2148 6.8711 L412.207 6.8711 L412.6133 6.2617 L413.5273 6.9219 L413.0703 7.3281 Q412.9688 9.207 412.7656 10.6035 Q412.5625 12 412.0293 12.4824 Q411.4961 12.9648 410.6328 13.168 Q410.6836 12.5078 408.957 12 L409.0078 11.7461 Q410.125 12 410.9375 12 Q411.75 12 412.0039 10.502 Q412.2578 9.0039 412.3086 7.1758 L406.2656 7.1758 L405.8594 7.6836 L405.0469 7.0742 L405.4531 6.7188 ZM417.8438 2.3516 L417.8438 4.0273 L419.8242 4.0273 L419.8242 2.3516 ZM420.5352 2.3516 L420.5352 4.0273 L422.5156 4.0273 L422.5156 2.3516 ZM423.1758 2.3516 L423.1758 4.0273 L425.207 4.0273 L425.207 2.3516 ZM417.082 1.6406 L417.8438 1.9961 L425.1562 1.9961 L425.5117 1.5391 L426.2734 2.0977 L425.9688 2.4023 Q425.9688 3.0625 425.9688 3.5449 Q425.9688 4.0273 426.0195 4.5352 L425.207 4.7891 L425.207 4.3828 L417.8438 4.3828 L417.8438 4.6367 L417.082 4.8906 Q417.1328 3.875 417.1328 3.0117 Q417.1328 2.1484 417.082 1.6406 ZM418.8594 11.2891 L418.8594 12.4062 L424.0391 12.4062 L424.0391 11.2891 ZM416.3711 5.4492 L420.8906 5.4492 Q420.9414 4.8906 420.9414 4.3828 L422.1094 4.7891 L421.7539 4.9922 L421.6016 5.4492 L424.8516 5.4492 L425.5625 4.8906 L426.4766 5.8047 L421.5508 5.8047 Q421.3984 6.3125 421.2461 6.7695 L423.9375 6.7695 L424.293 6.2109 L425.1562 6.8203 L424.75 7.2773 L424.75 12.4062 L425.7656 12.4062 L426.5273 11.7461 L427.543 12.7617 L417.2852 12.7617 Q416.5234 12.7617 415.9141 12.9141 L415.4062 12.4062 L418.0977 12.4062 L418.0977 7.7344 Q418.0977 7.1758 418.0469 6.4141 L418.8594 6.7695 L420.6875 6.7695 L420.8398 5.8047 L418.1992 5.8047 Q417.4883 5.8047 416.8789 5.957 ZM418.8594 7.125 L418.8594 8.1406 L424.0391 8.1406 L424.0391 7.125 ZM418.8594 8.4961 L418.8594 9.5117 L424.0391 9.5117 L424.0391 8.4961 ZM418.8594 9.8672 L418.8594 10.9336 L424.0391 10.9336 L424.0391 9.8672 ZM434.957 1.5898 L435.1094 1.4375 Q436.125 2.0469 436.3789 2.377 Q436.6328 2.707 436.6328 2.8594 Q436.6328 3.1641 436.2266 3.5703 L438.5625 3.5703 L439.1719 2.9609 L440.0859 3.875 L433.7891 3.875 Q433.1289 3.875 432.5703 4.0273 L432.1133 3.5703 L435.8203 3.5703 Q435.8203 2.6055 434.957 1.5898 ZM434.0938 9.3594 L434.0938 11.6953 L438.2578 11.6953 L438.2578 9.3594 ZM433.0273 5.3984 L437.9023 5.3984 L438.5117 4.7891 L439.4258 5.7031 L434.5508 5.7031 Q434.043 5.7031 433.4844 5.8555 ZM432.9258 7.2773 L437.9531 7.2773 L438.5625 6.668 L439.4766 7.582 L434.6016 7.582 Q433.9414 7.582 433.3828 7.7344 ZM433.3828 8.5977 L434.0938 9.0547 L438.1562 9.0547 L438.6133 8.5469 L439.3242 9.1562 L438.918 9.4609 L438.918 11.8984 Q438.918 12.4062 438.9688 12.6602 L438.2578 12.9648 L438.2578 12 L434.0938 12 L434.0938 12.7109 L433.3828 13.0156 Q433.4336 12.2031 433.4336 10.9844 Q433.4336 9.7656 433.3828 8.5977 ZM431.1484 5.6016 L431.1484 13.0664 L430.4375 13.3203 Q430.4883 12.3047 430.4883 11.5938 L430.4883 5.8555 Q429.5234 7.2773 428.6094 8.1406 L428.5078 7.9883 Q429.8281 6.1602 430.6406 4.1543 Q431.4531 2.1484 431.6055 1.3867 L432.6211 1.9961 L432.2148 2.25 Q431.4023 4.0273 430.9453 4.9414 L431.5547 5.2969 ZM445.1133 4.1797 Q446.4844 5.1953 448.1602 6.7695 Q448.8203 5.8555 449.3027 5.0176 Q449.7852 4.1797 450.0391 3.5703 L451.207 4.3828 Q450.75 4.4844 450.0898 5.373 Q449.4297 6.2617 448.7188 7.2266 Q450.5469 8.9531 450.6992 9.4102 Q450.8516 9.8672 450.8516 10.1211 Q450.8516 10.375 450.7246 10.6543 Q450.5977 10.9336 450.5469 10.9336 Q450.3945 10.9336 450.1406 10.4258 Q449.7344 9.7148 449.3027 9.1309 Q448.8711 8.5469 448.2617 7.8359 Q447.1953 9.0039 446.2305 9.8164 Q445.2656 10.6289 444.5039 11.0859 L444.4023 10.9336 Q445.3164 10.1719 446.1289 9.334 Q446.9414 8.4961 447.7539 7.3281 Q446.3828 5.7031 444.9609 4.332 ZM443.4883 2.4023 L451.0547 2.4023 L451.7656 1.6914 L452.7305 2.707 L443.4883 2.707 L443.4883 12.2031 L451.2578 12.2031 L451.9688 11.4922 L452.8828 12.5078 L443.5391 12.5078 L443.2344 12.9648 L442.4727 12.3555 L442.7773 12.0508 L442.7773 3.6719 Q442.7773 3.2148 442.7266 1.9453 ZM458.3672 10.9336 Q458.418 9.3086 458.418 7.709 Q458.418 6.1094 458.3672 4.5352 L459.1289 4.9922 L461.6172 4.9922 L462.125 4.4844 L462.7852 5.1445 L462.3789 5.5 Q462.3789 8.8516 462.4297 10.4258 L461.7188 10.832 L461.7188 10.0195 L459.0781 10.0195 L459.0781 10.5781 ZM459.0781 5.2969 L459.0781 7.2773 L461.7188 7.2773 L461.7188 5.2969 ZM459.0781 7.582 L459.0781 9.7148 L461.7188 9.7148 L461.7188 7.582 ZM456.5898 1.4375 Q457.7578 2.1992 457.9609 2.5039 Q458.1641 2.8086 458.1641 3.0117 Q458.1641 3.3164 457.9609 3.5957 Q457.7578 3.875 457.707 3.875 Q457.5547 3.875 457.4023 3.3164 Q457.1484 2.5547 456.4375 1.5898 ZM456.2852 11.1367 Q456.2852 11.9492 456.3359 12.7617 L455.5234 13.0664 Q455.5742 12.3047 455.5742 8.0391 Q455.5742 3.7734 455.5234 3.0117 L456.7422 3.6211 L456.2852 3.9258 ZM462.582 11.7461 Q464.207 12 464.4102 11.9238 Q464.6133 11.8477 464.6133 11.4922 L464.6133 2.9609 L460.5508 2.9609 Q459.8906 2.9609 459.332 3.1133 L458.875 2.6562 L464.5117 2.6562 L465.0195 2.1484 L465.7305 2.8594 L465.3242 3.1641 L465.3242 11.543 Q465.3242 12.2031 465.0957 12.5078 Q464.8672 12.8125 464.1562 13.1172 Q463.75 12.2539 462.582 11.9492 Z"
                  style="stroke:none; clip-path:url(#clipPath23);"/>
        </g>
    </g>
</svg>
